<svg xmlns="http://www.w3.org/2000/svg" xmlns:xlink="http://www.w3.org/1999/xlink" viewBox="0 0 64 64" version="1.1">
<g id="surface1">
<path style=" " d="M 31 2 C 15.007813 2 2 15.007813 2 31 C 2 46.992188 15.007813 60 31 60 C 46.992188 60 60 46.992188 60 31 C 60 15.007813 46.992188 2 31 2 Z M 31 4 C 45.886719 4 58 16.113281 58 31 C 58 45.886719 45.886719 58 31 58 C 16.113281 58 4 45.886719 4 31 C 4 16.113281 16.113281 4 31 4 Z M 31 8 C 18.316406 8 8 18.316406 8 31 C 8 43.683594 18.316406 54 31 54 C 43.683594 54 54 43.683594 54 31 C 54 23.894531 50.792969 17.300781 45.199219 12.90625 C 44.765625 12.566406 44.140625 12.640625 43.796875 13.074219 C 43.457031 13.507813 43.53125 14.136719 43.964844 14.480469 C 49.070313 18.492188 52 24.515625 52 31 C 52 42.578125 42.578125 52 31 52 C 19.421875 52 10 42.578125 10 31 C 10 19.421875 19.421875 10 31 10 C 32.027344 10 33.058594 10.074219 34.0625 10.222656 C 34.613281 10.304688 35.121094 9.925781 35.199219 9.378906 C 35.277344 8.832031 34.902344 8.324219 34.355469 8.242188 C 33.253906 8.082031 32.125 8 31 8 Z M 38.53125 9.34375 C 38.144531 9.363281 37.785156 9.609375 37.640625 10 C 37.453125 10.515625 37.71875 11.089844 38.238281 11.28125 C 39.019531 11.566406 39.796875 11.910156 40.546875 12.292969 C 40.695313 12.367188 40.851563 12.402344 41.003906 12.402344 C 41.367188 12.402344 41.71875 12.203125 41.894531 11.855469 C 42.144531 11.363281 41.949219 10.761719 41.457031 10.511719 C 40.636719 10.089844 39.785156 9.71875 38.925781 9.402344 C 38.796875 9.355469 38.664063 9.335938 38.53125 9.34375 Z M 31 14 C 30.449219 14 30 14.449219 30 15 L 30 17 C 30 17.550781 30.449219 18 31 18 C 31.550781 18 32 17.550781 32 17 L 32 15 C 32 14.449219 31.550781 14 31 14 Z M 36.980469 15.167969 C 36.589844 15.171875 36.222656 15.40625 36.066406 15.792969 L 35.316406 17.644531 C 35.109375 18.15625 35.355469 18.742188 35.871094 18.949219 C 35.992188 18.996094 36.121094 19.019531 36.246094 19.019531 C 36.640625 19.019531 37.015625 18.785156 37.171875 18.394531 L 37.921875 16.539063 C 38.128906 16.027344 37.878906 15.445313 37.367188 15.238281 C 37.238281 15.1875 37.109375 15.164063 36.980469 15.167969 Z M 42.097656 18.488281 C 41.839844 18.496094 41.589844 18.597656 41.394531 18.796875 L 40.003906 20.234375 C 39.621094 20.632813 39.632813 21.265625 40.03125 21.648438 C 40.222656 21.835938 40.472656 21.929688 40.722656 21.929688 C 40.988281 21.929688 41.246094 21.824219 41.441406 21.625 L 42.832031 20.1875 C 43.21875 19.789063 43.207031 19.15625 42.8125 18.769531 C 42.613281 18.578125 42.355469 18.484375 42.097656 18.488281 Z M 31 20 C 30.449219 20 30 20.449219 30 21 L 30 29.277344 C 29.40625 29.625 29 30.261719 29 31 C 29 32.101563 29.898438 33 31 33 C 31.179688 33 31.347656 32.96875 31.511719 32.925781 L 37.792969 39.207031 C 37.988281 39.402344 38.242188 39.5 38.5 39.5 C 38.757813 39.5 39.011719 39.402344 39.207031 39.207031 C 39.597656 38.816406 39.597656 38.183594 39.207031 37.792969 L 32.925781 31.511719 C 32.96875 31.347656 33 31.179688 33 31 C 33 30.261719 32.59375 29.625 32 29.277344 L 32 21 C 32 20.449219 31.550781 20 31 20 Z M 45.597656 23.492188 C 45.46875 23.496094 45.335938 23.523438 45.210938 23.578125 L 43.382813 24.390625 C 42.878906 24.617188 42.652344 25.207031 42.875 25.714844 C 43.042969 26.085938 43.40625 26.308594 43.789063 26.308594 C 43.925781 26.308594 44.0625 26.277344 44.195313 26.21875 L 46.023438 25.40625 C 46.527344 25.179688 46.753906 24.589844 46.53125 24.085938 C 46.359375 23.707031 45.988281 23.484375 45.597656 23.492188 Z M 15 30 C 14.449219 30 14 30.449219 14 31 C 14 31.550781 14.449219 32 15 32 L 17 32 C 17.550781 32 18 31.550781 18 31 C 18 30.449219 17.550781 30 17 30 Z M 45 30 C 44.449219 30 44 30.449219 44 31 C 44 31.550781 44.449219 32 45 32 L 47 32 C 47.550781 32 48 31.550781 48 31 C 48 30.449219 47.550781 30 47 30 Z M 43.964844 35.246094 C 43.574219 35.25 43.207031 35.484375 43.050781 35.871094 C 42.847656 36.382813 43.09375 36.964844 43.605469 37.171875 L 45.460938 37.921875 C 45.582031 37.972656 45.710938 37.996094 45.832031 37.996094 C 46.230469 37.996094 46.605469 37.757813 46.761719 37.367188 C 46.96875 36.855469 46.722656 36.273438 46.207031 36.066406 L 44.355469 35.316406 C 44.226563 35.265625 44.09375 35.242188 43.964844 35.246094 Z M 41.054688 39.722656 C 40.800781 39.730469 40.542969 39.832031 40.351563 40.03125 C 40.199219 40.1875 40.128906 40.386719 40.097656 40.585938 C 39.929688 40.953125 39.988281 41.402344 40.292969 41.707031 L 41.605469 43.019531 C 41.800781 43.214844 42.054688 43.3125 42.3125 43.3125 C 42.570313 43.3125 42.824219 43.214844 43.019531 43.019531 C 43.054688 42.984375 43.074219 42.933594 43.105469 42.894531 C 43.144531 42.863281 43.191406 42.847656 43.230469 42.808594 C 43.613281 42.410156 43.601563 41.777344 43.203125 41.394531 L 41.765625 40.003906 C 41.566406 39.8125 41.308594 39.71875 41.054688 39.722656 Z M 31 44 C 30.449219 44 30 44.449219 30 45 L 30 47 C 30 47.550781 30.449219 48 31 48 C 31.550781 48 32 47.550781 32 47 L 32 45 C 32 44.449219 31.550781 44 31 44 Z "></path>
</g>
</svg>