<svg xmlns="http://www.w3.org/2000/svg" xmlns:xlink="http://www.w3.org/1999/xlink" viewBox="0 0 64 64" version="1.1">
<g id="surface1">
<path style=" " d="M 18.441406 6.007813 C 14.203125 6.007813 9.964844 7.621094 6.734375 10.847656 C 3.609375 13.976563 1.886719 18.132813 1.886719 22.558594 C 1.886719 26.980469 3.609375 31.136719 6.734375 34.265625 L 26.453125 53.984375 C 26.476563 54.011719 26.488281 54.042969 26.515625 54.070313 L 27.929688 55.484375 C 27.957031 55.511719 27.992188 55.523438 28.019531 55.546875 L 29.832031 57.359375 C 30.398438 57.925781 31.152344 58.234375 31.953125 58.234375 C 32.753906 58.234375 33.507813 57.925781 34.074219 57.359375 L 57.152344 34.265625 C 60.277344 31.136719 62 26.980469 62 22.558594 C 62 18.132813 60.277344 13.976563 57.152344 10.847656 C 50.695313 4.394531 40.191406 4.394531 33.734375 10.847656 L 31.941406 12.640625 L 30.152344 10.847656 C 26.921875 7.621094 22.683594 6.007813 18.441406 6.007813 Z M 18.441406 8.007813 C 22.171875 8.007813 25.898438 9.425781 28.734375 12.265625 L 30.53125 14.058594 L 28.292969 16.292969 C 27.902344 16.683594 27.902344 17.316406 28.292969 17.707031 C 28.488281 17.902344 28.742188 18 29 18 C 29.257813 18 29.511719 17.902344 29.707031 17.707031 L 33.769531 13.644531 L 35.152344 12.265625 C 40.828125 6.589844 50.058594 6.589844 55.734375 12.265625 C 58.484375 15.011719 60 18.667969 60 22.558594 C 60 26.445313 58.484375 30.101563 55.734375 32.847656 L 32.660156 55.941406 C 32.28125 56.320313 31.625 56.324219 31.246094 55.941406 L 8.148438 32.847656 C 7.878906 32.578125 7.628906 32.289063 7.382813 32 L 16 32 C 16.378906 32 16.722656 31.785156 16.894531 31.449219 L 17.871094 29.5 L 20.0625 35.351563 C 20.21875 35.757813 20.585938 36.015625 21.046875 36 C 21.484375 35.976563 21.855469 35.679688 21.96875 35.257813 L 24.683594 25.074219 L 27.011719 42.136719 C 27.074219 42.605469 27.460938 42.96875 27.9375 43 C 27.957031 43 27.980469 43 28 43 C 28.449219 43 28.851563 42.699219 28.96875 42.257813 L 32.160156 30.277344 L 34.0625 35.351563 C 34.203125 35.722656 34.550781 35.976563 34.949219 36 C 35.34375 36.023438 35.71875 35.800781 35.894531 35.449219 L 37.617188 32 L 48.277344 32 C 48.625 32.59375 49.261719 33 50 33 C 51.101563 33 52 32.101563 52 31 C 52 29.898438 51.101563 29 50 29 C 49.261719 29 48.625 29.40625 48.277344 30 L 37 30 C 36.621094 30 36.277344 30.214844 36.105469 30.550781 L 35.128906 32.5 L 32.9375 26.648438 C 32.78125 26.242188 32.398438 25.992188 31.953125 26 C 31.515625 26.023438 31.144531 26.320313 31.03125 26.742188 L 28.316406 36.925781 L 25.988281 19.863281 C 25.925781 19.394531 25.539063 19.03125 25.0625 19 C 24.597656 18.972656 24.15625 19.28125 24.03125 19.742188 L 20.839844 31.722656 L 18.9375 26.648438 C 18.796875 26.277344 18.449219 26.023438 18.050781 26 C 17.664063 25.984375 17.28125 26.199219 17.105469 26.550781 L 15.382813 30 L 6 30 C 5.984375 30 5.96875 30.011719 5.953125 30.011719 C 4.617188 27.777344 3.886719 25.226563 3.886719 22.558594 C 3.886719 18.667969 5.402344 15.015625 8.148438 12.265625 C 10.988281 9.425781 14.714844 8.007813 18.441406 8.007813 Z M 44.898438 34.6875 C 44.644531 34.6875 44.386719 34.78125 44.191406 34.980469 C 43.800781 35.371094 43.800781 36 44.191406 36.390625 L 45.605469 37.808594 C 45.800781 38 46.054688 38.097656 46.3125 38.097656 C 46.570313 38.097656 46.824219 38 47.019531 37.808594 C 47.410156 37.414063 47.410156 36.785156 47.019531 36.390625 L 45.605469 34.980469 C 45.410156 34.78125 45.152344 34.6875 44.898438 34.6875 Z M 41.363281 38.222656 C 41.109375 38.222656 40.851563 38.320313 40.65625 38.515625 C 40.265625 38.90625 40.265625 39.539063 40.65625 39.929688 L 42.070313 41.34375 C 42.265625 41.539063 42.519531 41.636719 42.777344 41.636719 C 43.035156 41.636719 43.289063 41.539063 43.484375 41.34375 C 43.875 40.953125 43.875 40.320313 43.484375 39.929688 L 42.070313 38.515625 C 41.875 38.320313 41.617188 38.222656 41.363281 38.222656 Z M 37.828125 41.753906 C 37.574219 41.753906 37.316406 41.855469 37.121094 42.050781 C 36.730469 42.441406 36.730469 43.074219 37.121094 43.464844 L 38.535156 44.878906 C 38.730469 45.074219 38.984375 45.171875 39.242188 45.171875 C 39.5 45.171875 39.753906 45.074219 39.949219 44.878906 C 40.339844 44.488281 40.339844 43.855469 39.949219 43.464844 L 38.535156 42.050781 C 38.339844 41.855469 38.082031 41.753906 37.828125 41.753906 Z M 34.292969 45.292969 C 34.039063 45.292969 33.78125 45.390625 33.585938 45.585938 C 33.195313 45.976563 33.195313 46.609375 33.585938 47 L 35 48.414063 C 35.195313 48.609375 35.449219 48.707031 35.707031 48.707031 C 35.964844 48.707031 36.21875 48.609375 36.414063 48.414063 C 36.804688 48.023438 36.804688 47.390625 36.414063 47 L 35 45.585938 C 34.804688 45.390625 34.546875 45.292969 34.292969 45.292969 Z M 30.757813 48.828125 C 30.503906 48.828125 30.246094 48.925781 30.050781 49.121094 C 29.660156 49.511719 29.660156 50.144531 30.050781 50.535156 L 31.464844 51.949219 C 31.660156 52.144531 31.914063 52.242188 32.171875 52.242188 C 32.429688 52.242188 32.683594 52.144531 32.878906 51.949219 C 33.269531 51.558594 33.269531 50.925781 32.878906 50.535156 L 31.464844 49.121094 C 31.269531 48.925781 31.011719 48.828125 30.757813 48.828125 Z "></path>
</g>
</svg>