<svg xmlns="http://www.w3.org/2000/svg" viewBox="0 0 64 64">
    <path d="M 13 0 C 9.141 0 6 3.141 6 7 L 6 57 C 6 60.859 9.141 64 13 64 L 35 64 C 38.859 64 42 60.859 42 57 L 42 7 C 42 3.141 38.859 0 35 0 L 13 0 z M 13 2 L 35 2 C 37.757 2 40 4.243 40 7 L 40 8 L 8 8 L 8 7 C 8 4.243 10.243 2 13 2 z M 19 4 C 18.447 4 18 4.447 18 5 C 18 5.553 18.447 6 19 6 L 21 6 C 21.553 6 22 5.553 22 5 C 22 4.447 21.553 4 21 4 L 19 4 z M 25 4 C 24.447 4 24 4.447 24 5 C 24 5.553 24.447 6 25 6 L 29 6 C 29.553 6 30 5.553 30 5 C 30 4.447 29.553 4 29 4 L 25 4 z M 8 10 L 40 10 L 40 52 L 8 52 L 8 10 z M 51.876953 12.283203 C 51.621453 12.269953 51.359297 12.354062 51.154297 12.539062 C 50.744297 12.908062 50.710078 13.540172 51.080078 13.951172 C 55.542078 18.912172 58 25.322 58 32 C 58 38.68 55.542078 45.089781 51.080078 50.050781 C 50.710078 50.461781 50.744297 51.093891 51.154297 51.462891 C 51.345297 51.634891 51.584266 51.720703 51.822266 51.720703 C 52.095266 51.720703 52.369406 51.608672 52.566406 51.388672 C 57.360406 46.059672 60 39.175 60 32 C 60 24.827 57.359406 17.942281 52.566406 12.613281 C 52.381406 12.407281 52.132453 12.296453 51.876953 12.283203 z M 48.589844 17.623047 C 48.336219 17.589422 48.071063 17.651813 47.851562 17.820312 C 47.413562 18.156312 47.330969 18.784656 47.667969 19.222656 C 50.502969 22.914656 52 27.332 52 32 C 52 36.669 50.501062 41.087297 47.664062 44.779297 C 47.327062 45.217297 47.409656 45.844641 47.847656 46.181641 C 48.029656 46.321641 48.243078 46.388672 48.455078 46.388672 C 48.756078 46.388672 49.053 46.254047 49.25 45.998047 C 52.357 41.954047 54 37.113 54 32 C 54 26.888 52.358906 22.047906 49.253906 18.003906 C 49.085906 17.785906 48.843469 17.656672 48.589844 17.623047 z M 44.839844 23.167969 C 44.710828 23.182578 44.583391 23.223016 44.462891 23.291016 C 43.981891 23.562016 43.809078 24.171344 44.080078 24.652344 C 45.335078 26.884344 46 29.424 46 32 C 46 34.498 45.373453 36.969437 44.189453 39.148438 C 43.925453 39.633437 44.106797 40.242859 44.591797 40.505859 C 44.743797 40.587859 44.906359 40.626953 45.068359 40.626953 C 45.422359 40.626953 45.765266 40.436516 45.947266 40.103516 C 47.289266 37.632516 48 34.83 48 32 C 48 29.081 47.246266 26.200875 45.822266 23.671875 C 45.619016 23.311125 45.226891 23.124141 44.839844 23.167969 z M 12 30.056641 C 11.447 30.056641 11 30.503641 11 31.056641 L 11 33.056641 C 11 33.608641 11.447 34.056641 12 34.056641 C 12.553 34.056641 13 33.609641 13 33.056641 L 13 31.056641 C 13 30.503641 12.553 30.056641 12 30.056641 z M 17 30.056641 C 16.447 30.056641 16 30.503641 16 31.056641 L 16 33.056641 C 16 33.608641 16.447 34.056641 17 34.056641 C 17.553 34.056641 18 33.609641 18 33.056641 L 18 31.056641 C 18 30.503641 17.553 30.056641 17 30.056641 z M 22 30.056641 C 21.447 30.056641 21 30.503641 21 31.056641 L 21 33.056641 C 21 33.608641 21.447 34.056641 22 34.056641 C 22.553 34.056641 23 33.609641 23 33.056641 L 23 31.056641 C 23 30.503641 22.553 30.056641 22 30.056641 z M 27 30.056641 C 26.447 30.056641 26 30.503641 26 31.056641 L 26 33.056641 C 26 33.608641 26.447 34.056641 27 34.056641 C 27.553 34.056641 28 33.609641 28 33.056641 L 28 31.056641 C 28 30.503641 27.553 30.056641 27 30.056641 z M 32 30.056641 C 31.447 30.056641 31 30.503641 31 31.056641 L 31 33.056641 C 31 33.608641 31.447 34.056641 32 34.056641 C 32.553 34.056641 33 33.609641 33 33.056641 L 33 31.056641 C 33 30.503641 32.553 30.056641 32 30.056641 z M 37 30.056641 C 36.447 30.056641 36 30.503641 36 31.056641 L 36 33.056641 C 36 33.608641 36.447 34.056641 37 34.056641 C 37.553 34.056641 38 33.609641 38 33.056641 L 38 31.056641 C 38 30.503641 37.553 30.056641 37 30.056641 z M 8 54 L 40 54 L 40 57 C 40 59.757 37.757 62 35 62 L 13 62 C 10.243 62 8 59.757 8 57 L 8 54 z M 24 56 A 2 2 0 0 0 22 58 A 2 2 0 0 0 24 60 A 2 2 0 0 0 26 58 A 2 2 0 0 0 24 56 z"></path>
</svg>